:SAMPLES-PER-SECOND 30
:FULLY-SPECIFIED
:DEGREES
354
root  60.5253 31.8741 -10.2611 -159.552 -1.31593 -178.046
RightUpLeg  -40.6863 4.23933 0.824767
RightLeg  42.2602 -6.9132 -5.50789
RightFoot  -10.3984 0.126611 1.76903
RightToes  -28.9203 -0.136557 -0.244392
Spine  11.7579 0.822288 -2.16557
Spine1  21.5613 2.22632 -4.68018
HEad  26.4035 -13.6526 20.3326
LeftShoulder1  0 -2.42657e-020 -4.95415e-022
LeftArm  -49.8172 -3.24604 -64.332
LeftForeArm  171.666 -28.8961 -5.16619
LeftHand  6.66033 -41.2793 -17.9358
RightShoulder  0 2.42657e-020 1.07489e-018
RightArm  -10.5004 2.12955 79.4979
RightForeArm  23.2977 39.2178 8.27928
RightHand  0.16822 23.6989 1.17207
LeftUpLeg  -47.0445 -8.49461 8.54657
LeftLeg  60.6211 3.2842 5.01908
LeftFoot  -5.24738 -0.0241194 -0.526354
LeftToes  -24.517 1.18758e-006 1.19596e-007
355
root  61.4062 32.2637 -11.1923 -159.946 -0.425751 -178.379
RightUpLeg  -36.8332 3.49232 2.35502
RightLeg  38.5051 -5.97423 -4.15891
RightFoot  -10.3091 0.0915044 1.39199
RightToes  -28.2567 -0.132102 -0.239669
Spine  10.7966 0.60725 -2.36075
Spine1  20.064 1.43009 -3.9666
HEad  27.8718 -16.7434 22.814
LeftShoulder1  0 -2.42657e-020 -4.95415e-022
LeftArm  -48.5759 -1.98909 -64.7792
LeftForeArm  173.303 -31.9466 -5.87886
LeftHand  6.41094 -41.1954 -17.3235
RightShoulder  0 2.42657e-020 1.07489e-018
RightArm  -15.3287 -2.80828 78.4639
RightForeArm  24.3528 38.1042 7.95239
RightHand  0.0895312 23.6147 0.798506
LeftUpLeg  -47.7537 -13.9914 7.72499
LeftLeg  53.9363 2.739 3.28046
LeftFoot  -6.27306 -0.0235453 -0.429685
LeftToes  -25.3508 1.18758e-006 1.19596e-007
356
root  62.2098 32.4957 -12.1635 -161.052 0.924286 -179.099
RightUpLeg  -32.9488 2.51285 3.22841
RightLeg  36.0664 -4.14008 -2.6369
RightFoot  -10.7737 0.055985 0.97132
RightToes  -27.7789 -0.128929 -0.236236
Spine  10.3567 0.329927 -2.98065
Spine1  19.4221 0.622301 -4.21462
HEad  28.4156 -18.758 24.8468
LeftShoulder1  0 -2.42657e-020 -4.95415e-022
LeftArm  -46.8648 -2.53324 -63.7805
LeftForeArm  176.152 -35.1481 -6.67827
LeftHand  6.52633 -40.8671 -17.7738
RightShoulder  0 2.42657e-020 1.07489e-018
RightArm  -20.3197 -6.43464 78.5583
RightForeArm  25.2775 37.1044 7.66751
RightHand  0.0766029 22.844 0.749369
LeftUpLeg  -48.4329 -20.939 9.34084
LeftLeg  46.4353 3.10733 2.86234
LeftFoot  -6.28848 -0.0239111 -0.435289
LeftToes  -21.9604 1.18758e-006 1.19596e-007
357
root  63.0688 32.5799 -13.0675 -161.816 3.38597 -179.661
RightUpLeg  -30.3837 2.79685 4.03799
RightLeg  35.2362 -2.72558 -1.68725
RightFoot  -11.7354 0.0330399 0.699084
RightToes  -24.3536 -0.107034 -0.210871
Spine  10.0178 0.19016 -3.78642
Spine1  18.9559 0.124385 -4.87835
HEad  28.8313 -19.3195 25.74
LeftShoulder1  0 -2.42657e-020 -4.95415e-022
LeftArm  -44.966 -4.20528 -62.1423
LeftForeArm  -179.823 -38.4411 -7.56861
LeftHand  6.95328 -40.4273 -19.1116
RightShoulder  0 2.42657e-020 1.07489e-018
RightArm  -24.5283 -8.43897 79.2274
RightForeArm  25.3556 36.4477 7.48464
RightHand  -0.0320072 22.5846 0.209776
LeftUpLeg  -49.6768 -24.2936 11.9575
LeftLeg  38.8919 3.00114 2.11081
LeftFoot  -4.27911 -0.00950266 -0.254365
LeftToes  -20.2854 1.18758e-006 1.19596e-007
358
root  63.9809 32.462 -13.9546 -162.638 6.74399 -179.516
RightUpLeg  -29.1297 1.2826 5.7416
RightLeg  37.1346 0.651575 0.412584
RightFoot  -12.7536 -0.0575955 -0.137813
RightToes  -21.445 -0.0896599 -0.188338
Spine  9.88275 0.169413 -4.41094
Spine1  18.7497 0.0622009 -5.63122
HEad  30.41 -18.2565 25.4169
LeftShoulder1  0 -2.42657e-020 -4.95415e-022
LeftArm  -43.6585 -6.59311 -60.6668
LeftForeArm  -175.996 -41.4742 -8.46554
LeftHand  7.18099 -39.7188 -20.0834
RightShoulder  0 2.42657e-020 1.07489e-018
RightArm  -26.3181 -8.73432 79.785
RightForeArm  26.2701 35.9809 7.3564
RightHand  -0.225397 22.941 -0.740942
LeftUpLeg  -49.9013 -22.6185 13.7016
LeftLeg  32.0228 0.453245 0.240446
LeftFoot  -1.80809 -0.000263418 -0.0167023
LeftToes  -23.898 1.18758e-006 1.19596e-007
